<svg xmlns="http://www.w3.org/2000/svg" xml:space="preserve" style="enable-background:new 0 0 300 300" viewBox="0 0 300 300"><path d="M87.71 253.98c-5.97.75-11.82 1.51-17.68 2.2-1.9.22-3.82.38-5.73.34-3.89-.09-6.07-3.38-4.47-6.92 1.4-3.1 3.07-6.1 4.76-9.05 6.01-10.46 12.09-20.89 18.21-31.44-.77-.33-1.46-.61-2.13-.92-7.51-3.46-11.74-9.3-11.79-17.59-.03-5.39-2.14-8.67-7.13-10.72-9.82-4.02-14.44-15.1-10.36-24.89 2.08-4.99 1.27-8.83-2.53-12.62-7.49-7.48-7.53-19.53-.01-26.99 3.98-3.95 4.74-7.85 2.58-13.03-4.02-9.64.62-20.76 10.28-24.77 5.11-2.12 7.24-5.39 7.16-10.91-.15-10.44 8.55-19.24 19.02-19.19 5.63.03 8.9-2.22 11.03-7.39 3.95-9.55 15.01-14.09 24.59-10.14 5.07 2.09 8.98 1.3 12.86-2.55 7.3-7.22 18.15-7.38 26.04-.72.76.65 1.56 1.25 2.28 1.94 3.18 3.06 6.6 3.55 10.75 1.81 10.35-4.34 21.25.25 25.65 10.56 2.18 5.11 4.45 6.61 9.95 6.55 10.99-.11 19.86 8.45 19.83 19.46-.01 5.27 2.16 8.48 7.07 10.48 9.81 3.99 14.44 15.06 10.43 24.89-2.02 4.95-1.37 8.83 2.53 12.62 7.68 7.47 7.82 19.62.23 27.16-3.98 3.95-4.77 7.88-2.7 13.05 3.87 9.62-.66 20.61-10.24 24.57-5.22 2.16-7.29 5.52-7.34 11.09-.07 7.97-4.24 13.63-11.36 17.12-.74.36-1.51.67-2.44 1.08.49.91.91 1.77 1.39 2.6 6.32 10.96 12.67 21.91 18.96 32.89.99 1.73 1.88 3.53 2.57 5.4 1.27 3.46-.82 6.67-4.51 6.47-5.64-.31-11.28-.97-16.89-1.7-6.5-.85-6.47-.95-8.99 5.01-2.05 4.83-4.03 9.68-6.28 14.41-.66 1.4-1.93 2.88-3.29 3.49-2.04.91-4.3.64-5.7-1.6-2.34-3.74-4.75-7.44-6.96-11.26-6.71-11.6-13.34-23.25-20.01-34.88-.41-.71-.85-1.4-1.4-2.3-10.71 10.29-21.42 10.48-32.2-.08-.56.89-1.05 1.61-1.48 2.37-7.79 13.48-15.56 26.97-23.38 40.43-1.13 1.94-2.36 3.84-3.77 5.58-2.64 3.25-6.44 2.97-8.28-.81-2.57-5.31-4.74-10.82-7.08-16.24-.65-1.57-1.32-3.17-2.04-4.86zm3.98-195.97c-8.99.07-12.2 3.29-12.26 10.43-.07 8.38-4.73 15.01-12.94 18.42-5.27 2.19-7.29 6.78-5.12 11.96 3.71 8.85 2.08 16.56-4.68 23.3-3.85 3.85-3.87 9.03 0 12.88 6.78 6.76 8.32 14.48 4.61 23.31-2.12 5.04-.13 9.74 4.96 11.83 8.76 3.59 13.14 10.05 13.1 19.54-.02 5.55 3.73 9.27 9.23 9.28 9.46.03 15.83 4.24 19.45 12.85 2.28 5.43 6.95 7.37 12.42 5.12 8.46-3.48 15.95-2.03 22.49 4.35 4.28 4.18 9.45 4.25 13.71.11 6.55-6.36 14.07-7.79 22.52-4.42 5.52 2.2 10.11.31 12.41-5.15 3.6-8.53 10.06-12.74 19.28-12.8 5.87-.04 9.44-3.67 9.43-9.58 0-8.99 4.4-15.6 12.69-19.06 5.61-2.34 7.51-6.95 5.19-12.57-3.45-8.34-1.92-16.01 4.49-22.45 4.29-4.31 4.3-9.26.03-13.62-6.41-6.54-7.91-14.1-4.45-22.47 2.35-5.7.49-10.13-5.24-12.49-8.14-3.35-12.66-10.07-12.67-18.85-.01-6.37-3.5-9.81-9.94-9.8-8.39.01-15.34-4.61-18.57-12.35-2.55-6.11-6.85-7.83-13.07-5.42-8.08 3.13-15.37 1.76-21.67-4.24-4.87-4.64-9.55-4.65-14.45-.01-6.32 5.97-13.6 7.36-21.68 4.19-6.12-2.4-10.45-.59-13.06 5.49-3.4 7.95-9.56 11.87-16.21 12.22zm113.63 152.18c-1.57 2.45-3.08 4.3-4.05 6.4-2.84 6.17-7.4 10.22-14.04 11.6-2.55.53-5.25.32-8.2.47 6.13 10.61 12.21 21.14 18.51 32.04 1.61-3.96 3.04-7.48 4.48-10.99 2.77-6.75 4.44-7.7 11.62-6.6.25.04.49.11.74.14 3.42.45 6.85.89 10.44 1.35-.15-.56-.16-.82-.27-1.02-6.23-10.8-12.45-21.6-19.23-33.39zm-84.58 18.36c-.63-.07-.88-.13-1.12-.12-11.41.52-16.9-2.87-21.83-13.25-.77-1.61-2.18-2.92-3.55-4.7-6.72 11.65-13.08 22.69-19.74 34.23 4.29-.6 7.91-1.08 11.52-1.63 7.15-1.07 8.71-.22 11.5 6.42 1.5 3.58 2.99 7.17 4.65 11.18 6.26-10.83 12.32-21.32 18.57-32.13zm29.1-25.23c-40.58.35-74.29-33.1-74.63-74.05-.34-41.23 32.76-75.05 73.76-75.37 41.66-.32 75.16 32.69 75.5 74.37.34 41.23-32.93 74.69-74.63 75.05zm.03-10.77c35.67-.16 64.09-28.76 63.97-64.37-.11-35.02-29-63.73-64.03-63.64-35.6.08-64.17 28.98-63.98 64.71.19 34.9 29.08 63.46 64.04 63.3z"/><path d="M118.94 163.96c-1.84-.08-3.22-.93-4.04-2.57-.82-1.64-.67-3.27.39-4.77.36-.51.83-.95 1.28-1.4 19.98-19.99 39.97-39.97 59.95-59.96 1.14-1.14 2.3-2.16 4.05-2.14 1.92.02 3.36.88 4.2 2.57.85 1.69.67 3.37-.49 4.89-.35.46-.77.86-1.18 1.27-19.98 19.99-39.97 39.97-59.95 59.97-1.17 1.18-2.38 2.24-4.21 2.14zM131.24 120.73c-9.43.04-17.1-7.57-17.13-17.02-.03-9.4 7.64-17.13 17.02-17.17 9.36-.03 17.12 7.69 17.15 17.05.01 9.44-7.6 17.1-17.04 17.14zm-.05-24.8c-4.28 0-7.74 3.41-7.78 7.68-.04 4.25 3.6 7.88 7.84 7.83 4.22-.05 7.71-3.6 7.69-7.81a7.727 7.727 0 0 0-7.75-7.7zM168.5 136.37c9.46 0 17.07 7.59 17.08 17.06.01 9.39-7.69 17.11-17.06 17.11-9.37 0-17.1-7.73-17.09-17.1 0-9.44 7.63-17.07 17.07-17.07zm.04 24.78c4.28-.02 7.73-3.46 7.74-7.72.01-4.21-3.5-7.74-7.73-7.78-4.27-.04-7.87 3.58-7.81 7.85.07 4.29 3.5 7.67 7.8 7.65z"/></svg>