<svg width="60" height="60" viewBox="0 0 60 60" fill="none" xmlns="http://www.w3.org/2000/svg">
<path fill-rule="evenodd" clip-rule="evenodd" d="M5.06823 17.7737C5.41774 14.8606 6.89992 12.5305 8.02564 11.4205L15.1486 4.39671L15.6827 3.87012L16.2167 4.39671L28.114 16.1282L28.6481 16.6548L28.114 17.1814L21.6379 23.5673L37.1647 38.8776L43.6408 32.4918L44.1791 31.961L44.7131 32.496L55.6067 43.409L56.1323 43.9355L55.6025 44.458L47.3721 52.5736C44.683 55.2253 41.486 55.3918 38.6849 54.5667C35.9194 53.7522 33.4746 51.9637 32.058 50.5668L32.056 50.5648L8.9535 27.6131C8.95316 27.6127 8.95283 27.6124 8.95249 27.6121C5.53413 24.2408 4.71328 20.732 5.06823 17.7737ZM6.56826 17.9487C6.26783 20.4526 6.92829 23.5097 10.0216 26.5599L10.0236 26.5619L33.1261 49.5136C33.1264 49.514 33.1267 49.5143 33.1271 49.5146C34.4241 50.7933 36.6597 52.4158 39.1172 53.1396C41.5396 53.8531 44.1088 53.6851 46.3041 51.5205L54.0045 43.9272L44.1706 34.0758L37.6987 40.4574L37.1647 40.984L36.6307 40.4574L20.0358 24.0939L19.5018 23.5673L20.0358 23.0407L26.5119 16.6548L15.6827 5.9765L9.09371 12.4736C8.18429 13.3704 6.87415 15.3991 6.56826 17.9487Z" fill="black"/>
</svg>
