<svg width="48" height="48" viewBox="0 0 48 48" fill="none" xmlns="http://www.w3.org/2000/svg">
<path fill-rule="evenodd" clip-rule="evenodd" d="M21.0176 36.3003H5.25H3.75V34.8003V19.0327V13.5007V12.0007H5.25H10.782L17.9721 4.81066L19.0327 3.75L20.0934 4.81066L27.2835 12.0007H42.7493H44.2493V13.5007V34.8003V36.3003H42.7493H36.9155L30.0272 43.1886L28.9665 44.2493L27.9059 43.1886L21.0176 36.3003ZM34.7942 36.3003H23.1389L28.9665 42.128L34.7942 36.3003ZM25.1622 12.0007H12.9033L19.0327 5.87132L25.1622 12.0007ZM5.25 13.5007H32.8477V18.3534C32.7432 18.1994 32.6354 18.0505 32.5249 17.9079C32.0066 17.2394 31.3747 16.6389 30.6714 16.3101C29.9376 15.967 29.0871 15.9111 28.3042 16.4331C27.1595 17.1964 26.7535 18.6249 27.3166 19.9636H5.25V13.5007ZM28.8017 26.2707L32.0138 23.0586C30.4461 22.7303 29.2634 22.1674 28.4449 21.4636H5.25V34.8003H32.8477V24.346L29.8624 27.3313C29.5695 27.6242 29.0946 27.6242 28.8017 27.3313C28.5088 27.0384 28.5088 26.5636 28.8017 26.2707ZM34.3477 19.3696V13.5007H42.7493V19.9636H42.7485H42.7414H42.7342H42.727H42.7198H42.7125H42.7052H42.6979H42.6905H42.6831H42.6757H42.6682H42.6607H42.6532H42.6457H42.6381H42.6304H42.6228H42.6151H42.6074H42.5996H42.5918H42.584H42.5762H42.5683H42.5604H42.5525H42.5445H42.5365H42.5285H42.5204H42.5124H42.5042H42.4961H42.4879H42.4797H42.4715H42.4633H42.455H42.4467H42.4383H42.43H42.4216H42.4131H42.4047H42.3962H42.3877H42.3792H42.3706H42.362H42.3534H42.3448H42.3361H42.3274H42.3187H42.31H42.3012H42.2924H42.2836H42.2748H42.2659H42.257H42.2481H42.2391H42.2302H42.2212H42.2122H42.2031H42.1941H42.185H42.1759H42.1668H42.1576H42.1484H42.1393H42.13H42.1208H42.1115H42.1022H42.0929H42.0836H42.0743H42.0649H42.0555H42.0461H42.0367H42.0272H42.0177H42.0082H41.9987H41.9892H41.9796H41.9701H41.9605H41.9508H41.9412H41.9316H41.9219H41.9122H41.9025H41.8928H41.883H41.8733H41.8635H41.8537H41.8439H41.834H41.8242H41.8143H41.8044H41.7945H41.7846H41.7747H41.7647H41.7548H41.7448H41.7348H41.7248H41.7148H41.7047H41.6946H41.6846H41.6745H41.6644H41.6543H41.6441H41.634H41.6238H41.6136H41.6035H41.5933H41.583H41.5728H41.5626H41.5523H41.542H41.5318H41.5215H41.5112H41.5009H41.4905H41.4802H41.4698H41.4595H41.4491H41.4387H41.4283H41.4179H41.4075H41.3971H41.3866H41.3762H41.3657H41.3552H41.3448H41.3343H41.3238H41.3133H41.3027H41.2922H41.2817H41.2711H41.2606H41.25H41.2395H41.2289H41.2183H41.2077H41.1971H41.1865H41.1759H41.1653H41.1547H41.144H41.1334H41.1227H41.1121H41.1014H41.0908H41.0801H41.0694H41.0587H41.048H41.0374H41.0267H41.016H41.0053H40.9945H40.9838H40.9731H40.9624H40.9517H40.9409H40.9302H40.9195H40.9087H40.898H40.8872H40.8765H40.8657H40.855H40.8442H40.8335H40.8227H40.812H40.8012H40.7904H40.7797H40.7689H40.7581H40.7474H40.7366H40.7258H40.7151H40.7043H40.6935H40.6828H40.672H40.6612H40.6505H40.6397H40.6289H40.6182H40.6074H40.5966H40.5859H40.5751H40.5644H40.5536H40.5429H40.5321H40.5214H40.5106H40.4999H40.4892H40.4793C41.0424 18.6249 40.6364 17.1964 39.4917 16.4331C38.7088 15.9111 37.8583 15.967 37.1245 16.3101C36.4212 16.6389 35.7893 17.2394 35.271 17.9079C34.9308 18.3467 34.6162 18.8459 34.3477 19.3696ZM35.7821 23.0586L38.9942 26.2707C39.2871 26.5636 39.2871 27.0384 38.9942 27.3313C38.7013 27.6242 38.2264 27.6242 37.9335 27.3313L34.3477 23.7455V34.8003H42.7493V21.4636H42.7485H42.7414H42.7342H42.727H42.7198H42.7125H42.7052H42.6979H42.6905H42.6831H42.6757H42.6682H42.6607H42.6532H42.6457H42.6381H42.6304H42.6228H42.6151H42.6074H42.5996H42.5918H42.584H42.5762H42.5683H42.5604H42.5525H42.5445H42.5365H42.5285H42.5204H42.5124H42.5042H42.4961H42.4879H42.4797H42.4715H42.4633H42.455H42.4467H42.4383H42.43H42.4216H42.4131H42.4047H42.3962H42.3877H42.3792H42.3706H42.362H42.3534H42.3448H42.3361H42.3274H42.3187H42.31H42.3012H42.2924H42.2836H42.2748H42.2659H42.257H42.2481H42.2391H42.2302H42.2212H42.2122H42.2031H42.1941H42.185H42.1759H42.1668H42.1576H42.1484H42.1393H42.13H42.1208H42.1115H42.1022H42.0929H42.0836H42.0743H42.0649H42.0555H42.0461H42.0367H42.0272H42.0177H42.0082H41.9987H41.9892H41.9796H41.9701H41.9605H41.9508H41.9412H41.9316H41.9219H41.9122H41.9025H41.8928H41.883H41.8733H41.8635H41.8537H41.8439H41.834H41.8242H41.8143H41.8044H41.7945H41.7846H41.7747H41.7647H41.7548H41.7448H41.7348H41.7248H41.7148H41.7047H41.6946H41.6846H41.6745H41.6644H41.6543H41.6441H41.634H41.6238H41.6136H41.6035H41.5933H41.583H41.5728H41.5626H41.5523H41.542H41.5318H41.5215H41.5112H41.5009H41.4905H41.4802H41.4698H41.4595H41.4491H41.4387H41.4283H41.4179H41.4075H41.3971H41.3866H41.3762H41.3657H41.3552H41.3448H41.3343H41.3238H41.3133H41.3027H41.2922H41.2817H41.2711H41.2606H41.25H41.2395H41.2289H41.2183H41.2077H41.1971H41.1865H41.1759H41.1653H41.1547H41.144H41.1334H41.1227H41.1121H41.1014H41.0908H41.0801H41.0694H41.0587H41.048H41.0374H41.0267H41.016H41.0053H40.9945H40.9838H40.9731H40.9624H40.9517H40.9409H40.9302H40.9195H40.9087H40.898H40.8872H40.8765H40.8657H40.855H40.8442H40.8335H40.8227H40.812H40.8012H40.7904H40.7797H40.7689H40.7581H40.7474H40.7366H40.7258H40.7151H40.7043H40.6935H40.6828H40.672H40.6612H40.6505H40.6397H40.6289H40.6182H40.6074H40.5966H40.5859H40.5751H40.5644H40.5536H40.5429H40.5321H40.5214H40.5106H40.4999H40.4892H40.4784H40.4677H40.457H40.4462H40.4355H40.4248H40.4141H40.4034H40.3927H40.382H40.3713H40.3606H40.3499H40.3393H40.3286H40.3179H40.3073H40.2966H40.286H40.2753H40.2647H40.2541H40.2434H40.2328H40.2222H40.2116H40.201H40.1904H40.1799H40.1693H40.1587H40.1482H40.1376H40.1271H40.1166H40.1061H40.0955H40.085H40.0746H40.0641H40.0536H40.0431H40.0327H40.0223H40.0118H40.0014H39.991H39.9806H39.9702H39.9598H39.9495H39.9391H39.9288H39.9184H39.9081H39.8978H39.8875H39.8772H39.867H39.8567H39.8465H39.8362H39.826H39.8158H39.8056H39.7954H39.7853H39.7751H39.765H39.7549H39.7448H39.7347H39.7246H39.7145H39.7045H39.6945H39.6844H39.6744H39.6645H39.6545H39.6445H39.6346H39.6247H39.6148H39.6049H39.595H39.5852H39.5753H39.5655H39.5557H39.5459H39.5362H39.5264H39.5167H39.507H39.4973H39.4876H39.478H39.4683H39.4587H39.4491H39.4395H39.43H39.4204H39.4109H39.4014H39.392H39.3825H39.3731H39.3636H39.3542H39.351C38.5325 22.1674 37.3498 22.7303 35.7821 23.0586ZM30.0361 17.6689C29.6623 17.4942 29.387 17.514 29.1364 17.6811C28.5832 18.05 28.3344 18.8134 28.8315 19.6416C29.2864 20.3996 30.4349 21.2749 32.7271 21.668C32.5093 20.7595 32.0024 19.6821 31.3395 18.827C30.8977 18.2572 30.4404 17.858 30.0361 17.6689ZM38.6595 17.6811C38.4089 17.514 38.1335 17.4942 37.7598 17.6689C37.3555 17.858 36.8982 18.2572 36.4564 18.827C35.7935 19.6821 35.2866 20.7595 35.0688 21.668C37.361 21.2749 38.5095 20.3996 38.9644 19.6416C39.4615 18.8134 39.2127 18.05 38.6595 17.6811Z" fill="black"/>
</svg>
