<svg width="48" height="48" viewBox="0 0 48 48" fill="none" xmlns="http://www.w3.org/2000/svg">
<path fill-rule="evenodd" clip-rule="evenodd" d="M2.75 7H2V7.75V25.6756V35.562V36.312H2.75H5.93811C6.191 38.9426 8.40751 40.9996 11.1044 40.9996C13.8014 40.9996 16.0179 38.9426 16.2708 36.312H28.6964V36.3121H29.4463H32.7311C32.984 38.9427 35.2005 40.9996 37.8974 40.9996C40.5943 40.9996 42.8108 38.9427 43.0637 36.3121H46.2523H47.0023V35.5621V26.6234V26.1368L46.5579 25.9385L42.9601 24.3332L37.8613 13.4927L37.6587 13.0619H37.1827H30.1934V7.75V7H29.4434H2.75ZM37.8974 30.6188C35.3719 30.6188 33.2676 32.4226 32.8027 34.8121H30.1962L30.1954 25.437H41.7528L45.5023 27.1101V34.8121H42.9921C42.5272 32.4226 40.4229 30.6188 37.8974 30.6188ZM16.1991 34.812H28.6934V26.4256L3.5 26.4256V34.812H6.00975C6.47473 32.4225 8.57894 30.6188 11.1044 30.6188C13.6299 30.6188 15.7342 32.4225 16.1991 34.812ZM28.6934 24.9256V8.5H3.5V24.9256L28.6934 24.9256ZM30.1954 23.937V14.5619H36.7066L41.1162 23.937H30.1954ZM14.7948 35.8092C14.7948 37.8473 13.1426 39.4996 11.1044 39.4996C9.0663 39.4996 7.41406 37.8473 7.41406 35.8092C7.41406 33.771 9.0663 32.1188 11.1044 32.1188C13.1426 32.1188 14.7948 33.771 14.7948 35.8092ZM37.8974 39.4996C39.9356 39.4996 41.5878 37.8473 41.5878 35.8092C41.5878 33.771 39.9356 32.1188 37.8974 32.1188C35.8593 32.1188 34.207 33.771 34.207 35.8092C34.207 37.8473 35.8593 39.4996 37.8974 39.4996ZM6.16366 20H7.35166V17.327H9.81766V16.364H7.35166V14.915H10.0067V13.952H6.16366V20ZM12.2296 16.661V14.915H13.3726C13.6846 14.915 13.9246 14.987 14.0926 15.131C14.2666 15.275 14.3536 15.494 14.3536 15.788C14.3536 16.082 14.2666 16.301 14.0926 16.445C13.9246 16.589 13.6846 16.661 13.3726 16.661H12.2296ZM11.0416 13.952V20H12.2296V17.624H13.3276L14.5606 20H15.8206L14.4886 17.435C14.8306 17.297 15.0976 17.084 15.2896 16.796C15.4876 16.502 15.5866 16.166 15.5866 15.788C15.5866 15.17 15.4006 14.711 15.0286 14.411C14.6566 14.105 14.1076 13.952 13.3816 13.952H11.0416ZM20.9279 20V19.037H18.0479V17.318H20.7389V16.373H18.0479V14.915H20.8379V13.952H16.8599V20H20.9279ZM26.1662 20V19.037H23.2862V17.318H25.9772V16.373H23.2862V14.915H26.0762V13.952H22.0982V20H26.1662Z" fill="black"/>
</svg>
