<svg xmlns="http://www.w3.org/2000/svg" width="35" height="35" viewBox="0 0 35 35"><path fill="#333" fill-rule="evenodd" d="M17.5 34.998c-9.666 0-17.5-7.835-17.5-17.5s7.834-17.5 17.5-17.5c9.665 0 17.499 7.835 17.499 17.5s-7.834 17.5-17.499 17.5ZM16 14h-3V8h-2v8h5v-2Zm0 4h-3l-1.498 5.948h-.096L10 18H7v8h2l-.01-5.947h.096l1.411 5.936h2.095l1.207-5.936h.107L14 26h2v-8Zm3.61 4a14.932 14.932 0 0 0-.401-.006c-.375 0-.714.025-1.017.075-.304.05-.563.263-.778.389a1.28 1.28 0 0 0-.497.524c-.116.222-.174.506-.174.851 0 .215.022.422.066.621.044.2.134.878.269 1.035.136.157.328.282.575.374.247.092.57.138.969.138.272 0 .561-.056.868-.167.307-.111.561-.259.76-.443.232.353 1.022.529 1.628.529.247 0 .439-.015.575-.046v-1.157c-.168 0-.296-.038-.384-.115-.087-.076-.131-.222-.131-.437V22.2a4.39 4.39 0 0 0-.108-1.059c-.072-.283-.566-.511-.742-.684a1.49 1.49 0 0 0-.688-.368c-.283-.073-.64-.109-1.071-.109-.439 0-.87.052-1.293.155a4.881 4.881 0 0 0-1.077.385l.311.909a3.546 3.546 0 0 1 1.664-.402c.383 0 .656.074.82.224.163.149.245.241.245.525v.241A11.118 11.118 0 0 0 19.61 22Zm4.377-11.029h-3.991v1.733h2.23l-.041.935-.531.39c-.255.022-.495.116-.718.116-.75 0-1.098-.217-1.328-.446-.42-.42-.61-.811-.61-1.685 0-.928.147-1.219.592-1.664.232-.232.572-.491 1.346-.491.431 0 .804-.05 1.119.096.315.145.707.256.93.493l.97-1.332c-.359-.399-.912-.685-1.415-.857-.503-.173-1.046-.3-1.628-.3-.622 0-1.177.123-1.664.288a3.294 3.294 0 0 0-1.239.736 3.2 3.2 0 0 0-.778 1.225c-.179.491-.269 1.058-.269 1.703 0 1.249.311 2.213.934 2.892.622.679 1.604 1.181 2.944 1.181.559 0 1.168.013 1.603-.214.483-.251 1.16-.747 1.544-.915v-3.884Zm4.008 9.136h-1.209l-.048.149a4.458 4.458 0 0 0-.545-.19 2.5 2.5 0 0 0-.676-.086c-.519 0-.952.073-1.299.218-.347.146-.437.35-.644.61a2.38 2.38 0 0 0-.443.932 5.04 5.04 0 0 0-.132 1.196c0 .805.192 1.434.575 1.886.383.453.814.678 1.668.678.215 0 .424-.017.628-.051.203-.035.205-.079.381-.132v.448c0 .422-.124.717-.371.885-.248.169-.391.254-.806.254-.311 0-.589-.025-.832-.075a5.804 5.804 0 0 1-.58-.144l-.407 1.001c.239.092.518.168.837.23.32.061.675.092 1.066.092.407 0 .784-.044 1.131-.132.347-.089.646-.233.898-.432.251-.199.448-.458.592-.776.144-.318.216-.708.216-1.168v-5.393Zm-2.251 4.182c-.495 0-.654-.151-.854-.454-.199-.303-.299-.508-.299-.991 0-.652.108-.807.323-1.091.216-.283.387-.426.89-.426.223 0 .279.028.478.081v2.789c-.127.047-.093.073-.209.081a5.447 5.447 0 0 1-.329.011Zm-5.745-.157c-.144.13-.311.223-.503.276-.191.054-.355.08-.491.08-.255 0-.429-.061-.52-.183-.092-.123-.138-.3-.138-.53 0-.214.062-.381.186-.5.123-.119.353-.241.688-.241.12 0 .245.002.377.006s.265.014.401.029v1.063Z"/></svg>