<svg xmlns="http://www.w3.org/2000/svg" width="35" height="35" viewBox="0 0 35 35"><path fill="#333" fill-rule="evenodd" d="M17.5 34.998C7.835 34.998 0 27.163 0 17.499 0 7.834 7.835-.002 17.5-.002S35 7.834 35 17.499c0 9.664-7.835 17.499-17.5 17.499Zm-4.994-25c-.911 0-1.506.651-1.506 1.507 0 .837.578 1.507 1.471 1.507h.017c.929 0 1.506-.67 1.506-1.507-.018-.856-.577-1.507-1.488-1.507Zm1.493 3.991h-2.996v10.009h2.996V13.989ZM26 18.389c0-3.005-1.617-4.403-3.773-4.403-1.741 0-2.518.95-2.954 1.616v-1.604h-3.277c.044.918 0 10 0 10h3.006v-5.463c0-.292.022-.584.108-.793.237-.585 1.048-1.189 1.953-1.189 1.186 0 1.932.897 1.932 2.212v5.233H26v-5.609Zm-6.748-2.755c.006-.01.015-.021.021-.032v.032h-.021Z"/></svg>