<svg xmlns="http://www.w3.org/2000/svg" width="35" height="35" viewBox="0 0 35 35"><path fill="#333" fill-rule="evenodd" d="M17.5 34.998c-9.665 0-17.5-7.835-17.5-17.5s7.835-17.5 17.5-17.5S35 7.833 35 17.498s-7.835 17.5-17.5 17.5Zm1.012-28.001c-5.227 0-9.479 4.253-9.479 9.48 0 1.698.45 3.35 1.305 4.802l-1.33 4.723 4.87-1.254a9.464 9.464 0 0 0 4.634 1.208c5.227 0 9.48-4.252 9.48-9.479 0-5.227-4.253-9.48-9.48-9.48Zm0 16.944c-1.38 0-2.728-.346-3.9-1.062l-.276-.168-2.679.689.729-2.589-.186-.29a7.469 7.469 0 0 1-1.184-4.044c0-4.134 3.363-7.465 7.496-7.465a7.45 7.45 0 0 1 7.465 7.465 7.45 7.45 0 0 1-7.465 7.464Zm4.649-5.401-2.079-.958a.319.319 0 0 0-.386.095l-.816 1.058a.235.235 0 0 1-.262.078c-.559-.196-2.431-.981-3.459-2.959a.239.239 0 0 1 .03-.264l.78-.902c.08-.092.1-.221.052-.333l-.896-2.097a.32.32 0 0 0-.276-.193l-.615-.033a.743.743 0 0 0-.529.18c-.298.259-.775.76-.921 1.412-.218.973.119 2.164.993 3.355.873 1.192 2.501 3.097 5.38 3.912.927.261 1.657.085 2.22-.275.446-.285.753-.743.864-1.261l.098-.459a.32.32 0 0 0-.178-.356Z"/></svg>